<svg width="26" height="174" viewBox="0 0 26 174" fill="none" xmlns="http://www.w3.org/2000/svg">
<path d="M17.875 0H8.125C3.63838 0 0 3.63838 0 8.125V17.875C0 22.3616 3.63838 26 8.125 26H17.875C22.3616 26 26 22.3616 26 17.875V8.125C26 3.63838 22.3616 0 17.875 0ZM23.5625 17.875C23.5625 21.0112 21.0112 23.5625 17.875 23.5625H8.125C4.98875 23.5625 2.4375 21.0112 2.4375 17.875V8.125C2.4375 4.98875 4.98875 2.4375 8.125 2.4375H17.875C21.0112 2.4375 23.5625 4.98875 23.5625 8.125V17.875Z" fill="#D1A954"/>
<path d="M13 6.5C9.41037 6.5 6.5 9.41037 6.5 13C6.5 16.5896 9.41037 19.5 13 19.5C16.5896 19.5 19.5 16.5896 19.5 13C19.5 9.41037 16.5896 6.5 13 6.5ZM13 17.0625C10.7607 17.0625 8.9375 15.2393 8.9375 13C8.9375 10.7591 10.7607 8.9375 13 8.9375C15.2393 8.9375 17.0625 10.7591 17.0625 13C17.0625 15.2393 15.2393 17.0625 13 17.0625Z" fill="#D1A954"/>
<path d="M19.9854 6.87891C20.4637 6.87891 20.8515 6.49114 20.8515 6.01279C20.8515 5.53444 20.4637 5.14667 19.9854 5.14667C19.507 5.14667 19.1193 5.53444 19.1193 6.01279C19.1193 6.49114 19.507 6.87891 19.9854 6.87891Z" fill="#D1A954"/>
<path d="M20.6001 156H5.39987C2.4176 156 0 158.365 0 161.283V168.717C0 171.635 2.4176 174 5.39987 174H20.6001C23.5824 174 26 171.635 26 168.717V161.283C26 158.365 23.5824 156 20.6001 156ZM16.9482 165.362L9.83858 168.679C9.64914 168.768 9.43031 168.632 9.43031 168.427V161.585C9.43031 161.377 9.65489 161.242 9.84473 161.336L16.9544 164.861C17.1658 164.965 17.1621 165.262 16.9482 165.362Z" fill="white" fill-opacity="0.6"/>
<path d="M25.8621 124.644C25.8306 124.58 25.8013 124.526 25.774 124.484C25.3229 123.717 24.4609 122.776 23.1884 121.66L23.1615 121.635L23.1481 121.622L23.1345 121.609H23.1208C22.5433 121.09 22.1776 120.74 22.0245 120.561C21.7442 120.221 21.6815 119.876 21.8346 119.526C21.9428 119.262 22.3492 118.705 23.053 117.853C23.4231 117.402 23.7163 117.04 23.9328 116.767C25.4942 114.808 26.1711 113.556 25.9634 113.011L25.8828 112.884C25.8286 112.807 25.6887 112.737 25.4634 112.673C25.2375 112.609 24.9488 112.598 24.5967 112.641L20.6981 112.666C20.635 112.645 20.5448 112.647 20.4273 112.673C20.31 112.698 20.2513 112.711 20.2513 112.711L20.1834 112.743L20.1295 112.782C20.0844 112.807 20.0348 112.852 19.9806 112.916C19.9267 112.979 19.8816 113.054 19.8455 113.139C19.4211 114.17 18.9385 115.128 18.3969 116.014C18.063 116.542 17.7563 117 17.4762 117.387C17.1965 117.775 16.9619 118.06 16.7725 118.243C16.5828 118.426 16.4117 118.573 16.2579 118.684C16.1045 118.795 15.9873 118.841 15.9062 118.824C15.8249 118.807 15.7483 118.79 15.6758 118.773C15.5495 118.696 15.448 118.592 15.3714 118.46C15.2945 118.328 15.2427 118.162 15.2156 117.962C15.1887 117.762 15.1728 117.589 15.1682 117.444C15.164 117.3 15.1659 117.095 15.1751 116.831C15.1845 116.567 15.1887 116.388 15.1887 116.295C15.1887 115.971 15.1954 115.62 15.2088 115.241C15.2225 114.861 15.2335 114.561 15.2428 114.34C15.252 114.118 15.2562 113.884 15.2562 113.637C15.2562 113.39 15.2403 113.196 15.2088 113.056C15.1777 112.915 15.13 112.779 15.067 112.647C15.0037 112.515 14.9111 112.413 14.7895 112.34C14.6677 112.268 14.5163 112.211 14.3361 112.168C13.8577 112.066 13.2486 112.01 12.5084 112.002C10.8299 111.985 9.75134 112.087 9.27303 112.309C9.08351 112.402 8.91202 112.53 8.75868 112.692C8.59619 112.879 8.57353 112.981 8.69083 112.998C9.23239 113.075 9.61578 113.258 9.84143 113.548L9.92274 113.701C9.98599 113.812 10.0491 114.008 10.1124 114.289C10.1755 114.57 10.2162 114.881 10.2341 115.221C10.2792 115.843 10.2792 116.375 10.2341 116.818C10.1889 117.261 10.1463 117.606 10.1055 117.853C10.0648 118.1 10.0039 118.3 9.92274 118.453C9.84143 118.607 9.78733 118.7 9.76021 118.734C9.73314 118.768 9.71057 118.79 9.69264 118.798C9.57534 118.841 9.45334 118.862 9.32708 118.862C9.20063 118.862 9.04729 118.803 8.86683 118.683C8.68642 118.564 8.49918 118.4 8.30511 118.191C8.11105 117.983 7.89218 117.691 7.64843 117.316C7.40486 116.942 7.15214 116.499 6.89042 115.988L6.67388 115.617C6.53851 115.379 6.35359 115.032 6.11894 114.576C5.88415 114.12 5.67661 113.679 5.4962 113.253C5.42409 113.075 5.31575 112.938 5.17137 112.845L5.10361 112.806C5.05857 112.772 4.98626 112.736 4.88707 112.698C4.78774 112.659 4.68409 112.632 4.57571 112.615L0.866541 112.64C0.487513 112.64 0.230338 112.721 0.0949232 112.883L0.0407288 112.96C0.0136553 113.002 0 113.07 0 113.164C0 113.258 0.0270735 113.373 0.0812679 113.509C0.622738 114.71 1.21157 115.868 1.84778 116.984C2.48398 118.1 3.03683 118.999 3.50599 119.68C3.97525 120.361 4.45357 121.004 4.94094 121.609C5.42831 122.213 5.75091 122.601 5.90875 122.771C6.06679 122.942 6.19092 123.069 6.28115 123.155L6.61964 123.461C6.83622 123.666 7.15428 123.91 7.57394 124.196C7.9937 124.481 8.4584 124.762 8.9683 125.039C9.47828 125.316 10.0716 125.542 10.7485 125.716C11.4253 125.891 12.0841 125.961 12.7249 125.927H14.2817C14.5975 125.901 14.8367 125.808 14.9992 125.646L15.0531 125.582C15.0893 125.531 15.1232 125.452 15.1545 125.346C15.1862 125.239 15.2019 125.122 15.2019 124.995C15.1927 124.628 15.2222 124.298 15.2897 124.005C15.3572 123.711 15.4341 123.489 15.5201 123.34C15.6061 123.191 15.7031 123.065 15.8111 122.964C15.9193 122.861 15.9964 122.799 16.0416 122.778C16.0865 122.757 16.1224 122.742 16.1495 122.733C16.3661 122.665 16.621 122.731 16.9146 122.932C17.2079 123.132 17.4831 123.379 17.7404 123.673C17.9977 123.967 18.3067 124.297 18.6676 124.663C19.0288 125.029 19.3446 125.301 19.6152 125.48L19.8858 125.634C20.0666 125.736 20.3012 125.83 20.5901 125.915C20.8784 126 21.131 126.021 21.3479 125.979L24.8133 125.928C25.1561 125.928 25.4228 125.874 25.612 125.768C25.8015 125.661 25.9141 125.544 25.9504 125.417C25.9867 125.289 25.9886 125.144 25.9573 124.982C25.9252 124.82 25.8936 124.707 25.8621 124.644Z" fill="white" fill-opacity="0.6"/>
<path d="M19.4351 56.0054L15.8373 56C11.7953 56 9.18317 58.5115 9.18317 62.3986V65.3488H5.56572C5.25313 65.3488 5 65.5863 5 65.8793V70.1538C5 70.4467 5.25342 70.6839 5.56572 70.6839H9.18317V81.4698C9.18317 81.7628 9.4363 82 9.74889 82H14.4686C14.7812 82 15.0343 81.7625 15.0343 81.4698V70.6839H19.264C19.5766 70.6839 19.8297 70.4467 19.8297 70.1538L19.8314 65.8793C19.8314 65.7386 19.7717 65.6039 19.6658 65.5044C19.5598 65.4048 19.4155 65.3488 19.2654 65.3488H15.0343V62.8479C15.0343 61.6459 15.34 61.0357 17.0109 61.0357L19.4346 61.0348C19.7469 61.0348 20 60.7974 20 60.5047V56.5356C20 56.2432 19.7472 56.006 19.4351 56.0054Z" fill="white" fill-opacity="0.6"/>
</svg>
